<svg width="30" height="29" viewBox="0 0 30 29" fill="none" xmlns="http://www.w3.org/2000/svg">
<path d="M19.6758 9.95605L15.127 11.4727H15.126C14.8932 11.5509 14.641 11.5508 14.4082 11.4727H14.4062L9.8584 9.95605L9.48828 9.83301L9.2793 10.1611C8.73382 11.0134 8.39365 11.981 8.28711 12.9873C8.18062 13.9936 8.31007 15.0114 8.66504 15.959C9.02008 16.9067 9.59149 17.7586 10.333 18.4473C11.0745 19.1359 11.9662 19.6426 12.9375 19.9268C13.9088 20.2108 14.933 20.2654 15.9287 20.085C16.9245 19.9044 17.865 19.4937 18.6748 18.8867C19.4845 18.2798 20.1421 17.4929 20.5947 16.5879C21.0474 15.6827 21.2824 14.6839 21.2822 13.6719C21.2831 12.4274 20.9267 11.2087 20.2549 10.1611L20.0439 9.83301L19.6758 9.95605ZM14.6084 2.89258L6.67871 5.54199L5.25781 6.0166L6.67871 6.49023L14.6084 9.13574L14.7666 9.18848L22.8613 6.49023L24.2832 6.0166L22.8613 5.54199L14.9248 2.8916L14.7666 2.83887L14.6084 2.89258ZM0.500977 6.00293L0.5 5.98926C0.499452 5.97854 0.499469 5.96775 0.5 5.95703C0.512261 5.728 0.594185 5.50748 0.733398 5.3252C0.837766 5.18862 0.971084 5.07817 1.12305 5.00098L1.28125 4.93457L14.4062 0.55957L14.4082 0.558594C14.6406 0.480156 14.8926 0.480173 15.125 0.558594L15.127 0.55957L28.2988 4.9502C28.5052 5.02979 28.6857 5.16557 28.8154 5.3457C28.955 5.53971 29.0302 5.77273 29.0303 6.01172C29.0303 6.2509 28.9552 6.4846 28.8154 6.67871C28.7105 6.82439 28.5729 6.94246 28.415 7.02441L28.251 7.09375L22.8516 8.89355L22.2949 9.08008L22.5664 9.59961C23.5183 11.4216 23.8016 13.5203 23.3662 15.5293C22.9308 17.5381 21.8041 19.3303 20.1836 20.5947L19.5547 21.0859L20.2705 21.4375C22.4333 22.5027 24.2635 24.1395 25.5635 26.1699L25.5693 26.1797C25.6537 26.305 25.7127 26.4456 25.7422 26.5938C25.7716 26.742 25.7713 26.8949 25.7412 27.043C25.7112 27.191 25.6522 27.332 25.5674 27.457C25.4825 27.5821 25.3727 27.6889 25.2461 27.7715C25.1195 27.854 24.9777 27.9112 24.8291 27.9385C24.6807 27.9657 24.5283 27.9627 24.3809 27.9307C24.2332 27.8985 24.0926 27.8377 23.9688 27.751C23.8758 27.6859 23.7941 27.6067 23.7246 27.5176L23.6592 27.4258L23.6553 27.4199L23.46 27.1299C21.4068 24.1721 18.2502 22.4688 14.7666 22.4688C11.171 22.4688 7.92317 24.2832 5.88477 27.4199L5.88086 27.4258C5.80012 27.5534 5.69501 27.6643 5.57129 27.751C5.44758 27.8376 5.3077 27.8985 5.16016 27.9307C5.01249 27.9629 4.85959 27.9658 4.71094 27.9385C4.56226 27.9112 4.42055 27.8541 4.29395 27.7715C4.16738 27.6889 4.05855 27.582 3.97363 27.457C3.88871 27.332 3.8289 27.1911 3.79883 27.043C3.7688 26.8949 3.76843 26.7419 3.79785 26.5938C3.81993 26.4827 3.85872 26.3758 3.91211 26.2764L3.9707 26.1797L3.97656 26.1699C5.27525 24.1418 7.10376 22.5075 9.26367 21.4424L9.97852 21.0898L9.34961 20.5996C7.72896 19.3352 6.60337 17.5421 6.16797 15.5332C5.7326 13.5242 6.01493 11.4255 6.9668 9.60352L7.23926 9.08398L6.68164 8.89844L3.44043 7.81836L2.78223 7.59863V16.9531C2.78223 17.2556 2.6621 17.5459 2.44824 17.7598C2.23433 17.9737 1.94411 18.0938 1.6416 18.0938C1.33915 18.0937 1.04883 17.9736 0.834961 17.7598C0.621203 17.5459 0.500977 17.2555 0.500977 16.9531V6.00293Z" fill="#6B7280" stroke="black"/>
</svg>
